<?xml version="1.0" encoding="UTF-8" standalone="no"?>
<svg
   viewBox="0 0 512 512"
   version="1.1"
   id="svg689"
   sodipodi:docname="signin-edit.svg"
   inkscape:version="1.2.2 (732a01da63, 2022-12-09)"
   xmlns:inkscape="http://www.inkscape.org/namespaces/inkscape"
   xmlns:sodipodi="http://sodipodi.sourceforge.net/DTD/sodipodi-0.dtd"
   xmlns="http://www.w3.org/2000/svg"
   xmlns:svg="http://www.w3.org/2000/svg">
  <defs
     id="defs693" />
  <sodipodi:namedview
     id="namedview691"
     pagecolor="#ffffff"
     bordercolor="#000000"
     borderopacity="0.25"
     inkscape:showpageshadow="2"
     inkscape:pageopacity="0.0"
     inkscape:pagecheckerboard="0"
     inkscape:deskcolor="#d1d1d1"
     showgrid="false"
     inkscape:zoom="2.0058594"
     inkscape:cx="256"
     inkscape:cy="255.75073"
     inkscape:window-width="2560"
     inkscape:window-height="1369"
     inkscape:window-x="-8"
     inkscape:window-y="-8"
     inkscape:window-maximized="1"
     inkscape:current-layer="svg689" />
  <path
     d="M352 96h64c17.7 0 32 14.3 32 32V384c0 17.7-14.3 32-32 32H352c-17.7 0-32 14.3-32 32s14.3 32 32 32h64c53 0 96-43 96-96V128c0-53-43-96-96-96H352c-17.7 0-32 14.3-32 32s14.3 32 32 32zm-7.5 177.4c4.8-4.5 7.5-10.8 7.5-17.4s-2.7-12.9-7.5-17.4l-144-136c-7-6.6-17.2-8.4-26-4.6s-14.5 12.5-14.5 22v72H32c-17.7 0-32 14.3-32 32v64c0 17.7 14.3 32 32 32H160v72c0 9.6 5.7 18.2 14.5 22s19 2 26-4.6l144-136z"
     id="path687"
     style="fill:#ffffff;fill-opacity:1" />
</svg>
